<?xml version="1.0" encoding="UTF-8"?>
<svg width="24px" height="24px" viewBox="0 0 24 24" version="1.1" xmlns="http://www.w3.org/2000/svg" xmlns:xlink="http://www.w3.org/1999/xlink">
    <!-- Generator: Sketch 52.2 (67145) - http://www.bohemiancoding.com/sketch -->
    <title>Icon/Menu/Closed</title>
    <desc>Created with Sketch.</desc>
    <g id="Icon/Menu/Closed" stroke="none" stroke-width="1" fill="none" fill-rule="evenodd">
        <g>
            <rect id="Bounds" x="0" y="0" width="24" height="24"></rect>
            <path d="M4.5,4 L19.5,4 C20.3284271,4 21,4.67157288 21,5.5 L21,6.5 C21,7.32842712 20.3284271,8 19.5,8 L4.5,8 C3.67157288,8 3,7.32842712 3,6.5 L3,5.5 C3,4.67157288 3.67157288,4 4.5,4 Z" id="Rectangle" fill="#C8BB80"></path>
            <path d="M4,8 L9,8 L9,9 C9,9.55228475 9.44771525,10 10,10 L14,10 C14.5522847,10 15,9.55228475 15,9 L15,8 L20,8 L20,17 C20,18.6568542 18.6568542,20 17,20 L7,20 C5.34314575,20 4,18.6568542 4,17 L4,8 Z" id="Rectangle" fill="#C8BB80"></path>
            <rect id="Rectangle" fill-opacity="0.12" fill="#000000" x="4" y="8" width="16" height="1"></rect>
            <path d="M9,8 L15,8 L15,9 C15,9.55228475 14.5522847,10 14,10 L10,10 C9.44771525,10 9,9.55228475 9,9 L9,8 Z" id="Rectangle" fill="#FFFFFF"></path>
        </g>
    </g>
</svg>