<?xml version="1.0" encoding="UTF-8"?>
<svg width="24px" height="24px" viewBox="0 0 24 24" version="1.1" xmlns="http://www.w3.org/2000/svg" xmlns:xlink="http://www.w3.org/1999/xlink">
    <!-- Generator: Sketch 52.2 (67145) - http://www.bohemiancoding.com/sketch -->
    <title>Icon/Menu/Focus</title>
    <desc>Created with Sketch.</desc>
    <g id="Icon/Menu/Focus" stroke="none" stroke-width="1" fill="none" fill-rule="evenodd">
        <rect id="Bounds" x="0" y="0" width="24" height="24"></rect>
        <path d="M4,21 L4,6" id="Path" stroke="#FFC423" stroke-width="2" stroke-linecap="round"></path>
        <path d="M10,11 L10,13 C10,13.5522847 10.4477153,14 11,14 L19,14 C19.5522847,14 20,13.5522847 20,13 C20,12.7836298 19.9298221,12.5730962 19.8,12.4 L18,10 L19.8,7.6 C20.1313708,7.1581722 20.0418278,6.53137085 19.6,6.2 C19.4269038,6.07017787 19.2163702,6 19,6 L13,6" id="Path-3" stroke="#FFC423" stroke-width="2" fill="#FFC423"></path>
        <path d="M9,12 L12,12 C13.1045695,12 14,11.1045695 14,10 L14,5" id="Path-4" stroke="#000000" stroke-width="2" opacity="0.12"></path>
        <path d="M5,3 L12,3 C12.5522847,3 13,3.44771525 13,4 L13,10 C13,10.5522847 12.5522847,11 12,11 L5,11 C4.44771525,11 4,10.5522847 4,10 L4,4 C4,3.44771525 4.44771525,3 5,3 Z" id="Path-2" stroke="#FFC423" stroke-width="2" fill="#FFC423"></path>
    </g>
</svg>