<?xml version="1.0" encoding="UTF-8"?>
<svg width="24px" height="24px" viewBox="0 0 24 24" version="1.1" xmlns="http://www.w3.org/2000/svg" xmlns:xlink="http://www.w3.org/1999/xlink">
    <!-- Generator: Sketch 52.2 (67145) - http://www.bohemiancoding.com/sketch -->
    <title>Icon/Menu/Inbox</title>
    <desc>Created with Sketch.</desc>
    <g id="Icon/Menu/Inbox" stroke="none" stroke-width="1" fill="none" fill-rule="evenodd">
        <g>
            <rect id="Bounds" x="0" y="0" width="24" height="24"></rect>
            <path d="M4,15 L4,18 C4,19.6568542 5.34314575,21 7,21 L17,21 C18.6568542,21 20,19.6568542 20,18 L20,15 C20,14.4477153 19.5522847,14 19,14 L16,14 C15.4477153,14 15,14.4477153 15,15 L15,15 C15,15.5522847 14.5522847,16 14,16 L10,16 C9.44771525,16 9,15.5522847 9,15 L9,15 C9,14.4477153 8.55228475,14 8,14 L5,14 C4.44771525,14 4,14.4477153 4,15 Z" id="Path-2" fill="#0050FF"></path>
            <path d="M5,15 L5,7 C5,5.34314575 6.34314575,4 8,4 L16,4 C17.6568542,4 19,5.34314575 19,7 L19,15" id="Path" stroke="#0050FF" stroke-width="2"></path>
            <rect id="Rectangle" fill-opacity="0.2" fill="#000000" x="4" y="13" width="2" height="1"></rect>
            <rect id="Rectangle" fill-opacity="0.2" fill="#000000" x="18" y="13" width="2" height="1"></rect>
        </g>
    </g>
</svg>